M48
;Layer_Color=9474304
;FILE_FORMAT=2:5
INCH,LZ
;TYPE=PLATED
T1F00S00C0.01181
T4F00S00C0.02559
T5F00S00C0.03937
T6F00S00C0.04331
T7F00S00C0.04724
T8F00S00C0.05500
;TYPE=NON_PLATED
T9F00S00C0.07087
T10F00S00C0.12598
%
T01
X0045961Y0035894
Y0038894
Y0041894
Y0046894
Y0049894
Y0052894
X0070461
Y0049894
Y0046894
Y0041894
Y0038894
Y0035894
X0085827Y0048425
X008937
X0092913
X0096457
X0094217Y0054736
X0090158Y0055118
X00825Y0054
X0110524Y0052894
Y0049894
Y0046894
Y0041394
Y0038394
Y0035394
X0135024
Y0038394
Y0041394
Y0046894
Y0049894
Y0052894
X014685Y0054331
X0150394
X0160236
X0163386
X0222386Y0055063
X0226378Y0054331
X023189Y0053543
X0229134Y0048031
X0233858Y0040157
X0238583Y0035827
X0252362Y003937
X0257874Y003937
X0256693Y0033858
X0255118Y0051181
X0250394
X0245669
Y0055905
X0250394
X0255118
X0271654Y0050787
X0267717Y0046063
X026811Y0041339
X0279528Y0045669
X0270866Y005748
X026811Y0064961
X0255118Y006063
X0250394
X0245669
X0249634Y007076
X0255315Y007185
X026063Y007559
X0255906Y0080315
X025433Y0084252
X0255118Y0087402
Y0091339
X0262205Y0098032
X0264961
X0270079Y01
X0276378
X0279528Y010748
X0278346Y0091339
X0279528Y007559
X0247888Y0077165
X0245026
X0241339Y0073389
X0235433Y0066535
X0233465Y0078347
X0229921
X0226378
X0214173Y0077559
X0215354Y0074016
Y006811
X0214173Y0064567
Y006063
Y0056693
X022441Y0057087
X0229134Y0090945
Y0094095
X0237401Y0091338
X0237414Y0087414
X0238189Y0083465
X0238976Y0107283
X0237402Y011063
X0241575Y0110866
X0232929Y0113244
X0225787Y0112795
X0225732Y0109307
X0229134Y0107087
X0228368Y0117323
X0225506
X0218898Y011811
X0218756Y0114032
X0219685Y0134252
Y0138189
Y0142126
X0215748
Y0138189
Y0134252
X0223622
Y0138189
Y0142126
Y0146063
X0219685
X0215748
Y015
X0219685
X0223622
X0227559
Y0146063
Y0142126
Y0138189
Y0134252
X0238476Y0143133
X0241339Y0142126
X0245276Y0139764
X025
X0251575Y0147244
X0246063Y0145669
X0245669Y0152756
X0250394Y0153937
X0255906Y0150394
X0259449Y015
X0262598Y0151969
X0267323
X0260236Y0144095
Y0141232
X026063Y0136614
X0263386Y0129528
X0266929
X0268898Y0124803
Y0122047
X0261024Y0119685
X0252756Y0118898
X0247244Y0119685
X024685Y0123622
X0244488Y0127165
X0257874Y0127953
X0270079Y0135827
X0266929Y0174016
X0274016Y0174409
X0277559Y0188976
X0284646
X0291732
X029941Y0190551
X0306496
X0287402Y0208661
X0280709Y0204528
X0264567Y0198228
Y0195079
Y0191929
X0261417
X0270472Y0188976
X0244094Y0170472
X0243701Y0167323
X0237402Y0167323
X0236614Y0164173
X0238583Y0156693
X0239764Y0173228
X0231102Y0172835
X0226772Y0174409
X0225984Y0168898
X022126Y0169291
X0218898Y0164173
X0216535Y0166142
X0213386Y0169291
X0223622Y0162992
X0226771Y0162598
X0227953Y0192126
Y0196457
X0222835
X0216535Y0188583
X0213386
X0216142Y009252
X0219291
X0213779Y0088583
X021063
X020748
X0203937Y0096063
Y0099213
X0199207Y0100793
X0199213Y0093701
X0201969Y0106693
Y0109449
X0209449Y0114173
Y011811
X0211811Y0134252
Y0138189
Y0142126
Y0146063
Y015
X0200787Y0147244
X0197637Y0147244
X0198819Y0142126
X0198819Y0138976
X0193701Y0136221
X0188583Y0136614
X0185827Y0133858
X0183071Y0135039
X0191339Y0132677
X0197606Y0128709
X0201181Y0130709
X0194095Y0124409
X0188583
X0191339Y0121653
X0188189Y0118898
X0186221Y0116535
X0183071
X0181102Y0118898
X0182677Y0107087
X0187007Y0105118
X0185039Y010265
X0191339Y0104331
X0177559Y0101969
X0166929Y0107087
X0169685Y0110236
Y0113779
X0161024Y012126
X0147638Y0113386
Y0110236
X0148622Y0090748
Y0084842
X0151575Y0087795
X0154528Y0090748
Y0084842
X0159055Y006811
X0166497Y0067007
X0171221
X0175946
Y0074881
X0171221
X0166497
X0165748Y0057874
X0144488
X0132283Y0069829
Y0072691
Y0082427
Y0085289
X0122441Y0090157
Y0077559
X0112205Y0078347
Y0084646
Y0071653
X01Y0072047
X0095276
X0090551
X0085827
X0081102
Y0076772
X0085827
X0090551
X0095276
X01
Y0081496
X0095276
X0090551
X0085827
X0081102
Y0086221
X0085827
X0090551
X0095276
X01
Y0090945
X0095276
X0090551
X0085827
X0081102
X0074016Y0095276
X0069685Y0084252
X0066536Y0084645
X0059449Y0084264
Y0077264
X0066142Y0077559
X0069004Y0076575
X0070079Y0069291
X006811Y0059842
X0061811Y0062205
X0058661Y0067941
X0075984Y0062205
X0087599Y0060661
X0084252Y0056693
X0092913Y005748
X0107087Y0058661
X0114516Y00595
X0117717Y006063
X0122441Y006496
X0107087Y0096063
X0122047Y0156299
X0125197Y0155905
X0127559Y0175197
X0123228Y0179528
X0123566Y018352
X0120416Y0177615
X0118054Y0175646
X0111805Y0169691
X0103599Y0173678
X0102362Y0179921
X0102362Y0183858
X0098032Y0198822
Y0201684
X0103937Y0207086
X0129921Y0212205
X0133858Y0211417
X0141769Y021106
X0136221Y0205118
X0143701Y0192913
X0143701Y0189764
X0149213Y0190945
X0162261Y0189426
X0160236Y0187401
X0161417Y0194885
Y0197747
X015748Y0212205
X0177897Y0207142
X0175984Y0204724
X0179134Y0198819
Y0195669
X0181496Y0200787
X0188976Y0209842
X0205906Y0209449
X0204331Y0193701
X0199606
X0197638Y0197244
X0210236Y0188583
X0212205Y0179921
X0204724
Y0172441
X0207874Y016811
X0199213Y0175197
X0194095Y0173622
X0186614Y0181102
X0183071
X0179528
X0178347Y0177165
X0175197Y0164567
X0172835Y0162881
X0169973Y0162966
X0168504Y0165545
X016811Y0168504
X016063Y0159449
X0156299
X0181496Y0160236
X018189Y0153937
X0183858Y0151575
X0185827Y0147638
X0189764Y0142913
X0190157Y0157087
X0193701
X0195631Y0074881
X0190906
X0186182
Y0067007
X0190906
X0195631
X0205512Y0064567
Y006063
Y0056693
X0205906Y007874
X0075197Y0167323
Y0171653
Y017874
X0074803Y0184646
X0057874Y0189764
X0055118
X0041Y0182862
Y018
Y0173
Y017
Y0163
Y016
Y0153862
Y0151
X0054724Y0081496
X0041Y02155
Y02185
X0040945Y0224033
X0040945Y0227165
X0041Y02355
Y02385
Y0246
Y0249
X0051575Y0261811
X005315Y0279921
X0044488Y0295079
X0038189Y028937
X0045276Y0308268
X005315Y031063
X0056102
X0050394Y0314566
X0054602Y0321138
Y0324138
X0047244Y0328346
X005315Y0334646
X0056102
X0038418Y0339764
X0038483Y0356299
X0023228Y031811
X0020079
X0011811
X0008661
X0057602Y0321138
Y0324138
X0065748Y0327559
X0064567Y0316535
X0066929Y0308268
X0059055Y031063
X0073425Y0313189
X0079134Y0324016
X0076772Y0329921
X0074016Y0338583
X0085433Y0338583
X0090551Y0340945
X0095669Y0338583
X0106693
X0114961Y033937
X0114961Y0356693
X0106693Y0359842
X0103937Y0362205
X0095669Y0359842
X0085433
X0090551Y0364961
Y035315
X0079921Y034685
X0075984Y0350787
X0074016Y0359842
X0077165Y0362205
X0064567Y035748
X0059055Y0334646
X0090551Y032874
X0092913Y0322441
X0093307Y0318504
X0101575Y0322441
X0107874Y0324409
X0104331Y0329921
X0101181Y034685
X0105118Y0350787
X0127953Y0334646
X0130905
X0133858
X0138582Y0329133
X0132405Y0324138
X0129405
Y0321138
X0132405
X0136614Y0315354
X0133858Y031063
X0130905
X0127953
X0122441Y0310138
X0120866Y0315748
X0107874Y0313189
X011063Y0304724
X0108661Y0296063
X0119291Y0295177
X0119685Y0288583
X0118898Y0284252
X0123622Y0281102
X0127953Y0280463
X0133858
X0139764Y0275984
X0145669
X0143307Y0285827
X014252Y0295177
X0154331Y0290945
X0172441Y0285827
X0168504Y0280315
Y0277165
Y0274016
X0176547Y0260453
X01795Y02575
X0176547Y0254547
X0182453
Y0260453
X0200394Y025748
X0203937
X0210236Y0263779
X0205512Y0273622
X0205637Y0299731
X0211817Y0312211
X0198425Y0332283
X0191339
X0193707Y034252
X019685
X018662Y0353155
X018662Y0358656
X0153445Y0345079
X0139763Y0309448
X0096707Y0302756
X0093844
X0088583Y0292913
X0086614Y0290551
X0084646Y0288189
X0092323Y0286024
X0098819Y0290158
X01Y0272047
Y0267323
Y0262598
Y0257874
Y025315
X0104724
Y0257874
Y0262598
Y0267323
Y0272047
X0095276
Y0267323
Y0262598
Y0257874
Y025315
X0090551
X0085827
Y0257874
X0090551
Y0262598
X0085827
Y0267323
X0090551
Y0272047
X0085827
X007441Y0266929
X0069882Y0268209
Y0264862
Y0261614
X006624Y0260531
X0068209Y0255512
X0073622Y0256299
X0069291Y0247244
X0072835Y027874
Y0284252
X0064961Y0279921
X0059055
X0067717Y0295079
X0081102Y0294488
X0079134Y0302362
X0116043Y0275492
X0122343Y0268701
X0122343Y0263189
X0116528Y0262287
X0118Y0257941
X0116Y02555
X0115256Y0249213
X0116178Y0243271
X0120193Y0246358
X0125902Y0246457
X0127559Y0241339
X0129957Y023894
X0127989Y023579
X0124015Y023622
X0122083Y0233894
X0118897Y0234251
X011811Y0220866
X0124016Y0220472
X0138976Y0213779
X0140157Y0236221
X014252Y0243701
X0133858Y0247244
X0128657Y0254724
X0139764Y0254331
X0145669
X0152686Y0233731
X0155511Y0235039
X0169685Y0233858
X0172835
X0172047Y0226378
X017874Y022334
Y0213779
X0190551Y0221653
X0192913Y0219291
X0195276Y0216929
X0205906Y0212598
Y0237402
Y0240551
X0188976Y0239764
Y0236614
X0186221Y0234252
X0166142Y0242913
X0178347Y028937
X0181102
X0183858
X0100394Y0224803
X0095669Y0221114
X0098425Y0214961
X023937Y0219094
X0243307
Y0225
X024685
X0251575
X0257087
X0261417
X0264567Y0223031
Y0226969
X0273228Y0225
Y0220276
X0277953
X0282677
Y0225
X0277953
Y0229724
X0282677
X0273228
X0278346Y0244488
X028562Y0240758
X0287795Y0246457
X0284646Y0261417
X0277559
X0270472
X0264567Y0258071
Y0254921
Y0251772
X0261417Y0258071
X0283858Y0268307
X0291732Y0261417
X029872Y0261319
X0305807Y0261319
X0307874Y0235433
X0309055Y0223031
Y0215945
X0293307Y0213386
X023937Y0225
Y0230906
X0243307
X0227953Y0256299
Y026063
Y0264961
X0223228
X0216535Y0263779
X0213386
X0214567Y0273622
X0223622Y0288189
X0230715Y0281502
X0236214Y0281502
X0247244Y0291339
X0258661
X023937Y0303543
X023937Y0314961
X023622Y0315354
X0229331Y0318701
X0224803Y0315748
X0220472Y031811
X0216929Y0318897
X0217317Y0312211
X0214567Y0301181
X0217323Y0338583
Y0343307
Y0348031
Y0352756
X0222047
X0226772
X0231496
Y0348031
Y0343307
X0226772
Y0348031
X0222047
Y0343307
Y0338583
X0226772
X0231496
X0250984Y033878
X0257087Y033937
X0255906Y0333465
X025Y0329528
X0248425Y0323622
X0245669Y0312205
X0262598Y0327165
X0269685
X0275984Y032126
X0279134
X0285827Y031378
Y0306693
X0293701Y0293307
X029685
X0303937
X0307087
X0293307Y0338189
X0279528Y0362205
X0276378
X0269685Y0355512
X0262598
X0264567Y0359455
Y0364955
X0223228Y0256299
X0220073Y0377947
X0214573Y0377959
X0227171Y0377947
X0232671Y0377959
X0240158Y0388976
X0247244
X0254331
X0261417
X0257874Y0370467
T04
X0021161Y015187
Y0158169
Y0164469
Y0170768
Y0177067
Y0183366
Y0189665
Y0195965
Y0202264
Y0208563
X0025689Y0211713
X0030413Y0210138
Y0203839
X0025689Y0205413
Y0199114
X0030413Y0197539
Y019124
X0025689Y0192815
Y0186516
X0030413Y0184941
Y0178642
Y0172343
X0025689Y0173917
Y0180217
X0034941Y0181791
Y0188091
Y019439
Y0200689
Y0206988
Y0175492
Y0169193
Y0162894
Y0156595
Y0150295
X0030413Y0153445
Y0159744
Y0166043
X0025689Y0167618
Y0161319
Y015502
Y0148721
Y0218012
Y0224311
X0030413Y0222736
Y0229035
Y0235335
Y0241634
Y0247933
Y0254232
X0034941Y0251083
Y0244783
Y0238484
Y0232185
Y0225886
Y0219587
Y0213287
X0030413Y0216437
X0021161Y0214862
Y0221161
Y0227461
Y023376
Y0240059
Y0246358
Y0252658
X0025689Y0249508
Y0243209
Y023691
Y023061
T05
X0096102Y0130039
Y0140039
X0106102
Y0130039
X0116102
Y0140039
X0126102
Y0130039
X0136102
Y0140039
X0146102
Y0130039
X0156102
Y0140039
X0166102
Y0130039
T06
X0043Y00175
X00735
X01075
X0138
X0233879Y0017331
X0265869
X0296457Y0052756
Y0085039
X0296654Y0127165
X0296457Y0157874
X0145669Y037815
X0116142
X0070669
X0041142Y037815
T07
X0033354Y0007854
X0052646
Y0027146
X0033354
X0063854
Y0007854
X0083146
X0097854
X0117146
X0128354
X0147646
Y0027146
X0128354
X0117146
X0097854
X0083146
X0224234Y0026977
X0243525
X0256224
X0275515
Y0007685
X0256224
X0243525
X0224234
X0286811Y004311
X0306102
Y0062402
Y0075394
X0286811
Y0062402
Y0094685
X0306102
X0306299Y011752
Y0136811
X0306102Y0148228
Y016752
X0286811
Y0148228
X0287008Y0136811
Y011752
X0025689Y0137795
Y0265158
X0031496Y0368504
X0050787
X0061024Y0368504
X0080315
X0106496
X0125787
X0136024
X0155315
Y0387795
X0136024
X0125787
X0106496
X0080315
X0061024
X0050787Y0387795
X0031496
T08
X0176063Y0046063
X0196063
T09
X0015354Y0118996
Y0283957
T10
X0015748Y0015748
X0299213
Y0377953
X0015748
M30
